<?xml version="1.0" standalone="no"?>
<!DOCTYPE svg PUBLIC "-//W3C//DTD SVG 20010904//EN"
 "http://www.w3.org/TR/2001/REC-SVG-20010904/DTD/svg10.dtd">
<svg version="1.0" xmlns="http://www.w3.org/2000/svg"
 width="300.000000pt" height="300.000000pt" viewBox="0 0 300.000000 300.000000"
 preserveAspectRatio="xMidYMid meet">
<metadata>
Created by potrace 1.10, written by Peter Selinger 2001-2011
</metadata>
<g transform="translate(0.000000,300.000000) scale(0.100000,-0.100000)"
fill="#000000" stroke="none">
<path d="M1675 2990 c-112 -26 -204 -132 -245 -284 -16 -57 -18 -59 -67 -78
-62 -23 -134 -85 -169 -144 l-26 -44 -62 0 c-212 0 -414 -168 -458 -381 -8
-39 -17 -59 -26 -59 -28 0 -158 -70 -204 -110 -185 -160 -229 -456 -99 -661
45 -71 88 -116 159 -163 l67 -44 88 -374 c48 -205 99 -396 112 -425 51 -112
167 -201 276 -210 32 -3 59 -3 59 0 0 4 -26 14 -57 23 -120 34 -207 100 -251
189 -11 22 -41 130 -66 240 -26 110 -56 234 -66 275 -10 41 -30 125 -44 185
-19 84 -31 114 -48 128 -13 10 -52 39 -87 65 -150 110 -220 303 -177 493 36
162 159 297 318 348 48 16 55 26 79 112 56 202 238 339 449 339 48 0 49 1 86
56 42 63 110 118 168 136 44 14 59 34 75 102 28 114 92 196 190 242 74 36 106
26 106 -31 0 -36 -3 -41 -54 -70 -63 -37 -103 -87 -121 -150 -16 -57 -10 -72
42 -94 68 -30 122 -74 162 -135 l37 -56 67 0 c82 0 168 -21 236 -58 104 -56
205 -190 221 -292 11 -76 15 -81 73 -107 137 -60 233 -159 281 -289 30 -79 30
-250 -1 -331 -33 -89 -92 -168 -161 -218 -34 -24 -72 -52 -85 -62 -20 -15 -36
-71 -113 -398 -49 -209 -98 -399 -109 -423 -44 -94 -130 -161 -252 -196 -32
-9 -58 -19 -58 -23 0 -3 27 -3 59 0 109 9 225 97 276 210 13 29 63 219 111
422 59 253 91 374 103 383 9 7 44 33 79 57 110 79 182 201 205 348 35 218
-102 458 -310 542 l-57 24 -12 59 c-45 220 -244 382 -469 382 l-73 0 -26 44
c-34 59 -108 122 -166 143 -44 16 -47 19 -40 43 24 82 66 131 138 160 34 13
62 54 62 89 0 27 -39 68 -70 74 -14 2 -38 1 -55 -3z"/>
<path d="M1415 2493 c-16 -8 -45 -29 -62 -46 -128 -121 -43 -348 136 -364 37
-4 57 1 101 24 158 83 158 303 -1 383 -47 24 -131 26 -174 3z m158 -27 c99
-42 139 -172 80 -263 -35 -55 -87 -83 -153 -83 -160 0 -241 187 -132 304 51
54 136 72 205 42z"/>
<path d="M1023 2281 c-71 -24 -127 -65 -169 -123 -42 -56 -74 -150 -74 -213 0
-51 -10 -61 -81 -76 -121 -25 -225 -107 -278 -219 -22 -47 -25 -69 -26 -150 0
-87 3 -100 33 -162 66 -136 187 -211 338 -212 111 0 188 37 270 129 79 89 93
88 189 -9 92 -93 151 -119 270 -120 114 0 176 30 277 134 42 44 84 80 93 80
10 0 52 -35 94 -79 83 -86 126 -113 215 -131 156 -32 320 53 397 207 32 63 34
75 34 163 0 84 -3 102 -28 153 -51 103 -158 191 -257 212 -66 13 -77 26 -82
103 -13 174 -148 316 -314 330 -57 4 -62 3 -82 -23 -12 -15 -22 -37 -22 -49
-1 -37 -37 -104 -86 -156 -59 -63 -131 -93 -229 -94 -93 -1 -161 24 -225 81
-56 50 -79 89 -104 174 -21 76 -51 85 -153 50z m129 -59 c17 -99 101 -201 206
-250 48 -23 71 -27 142 -27 71 0 94 4 142 27 105 49 189 151 206 250 l8 43 61
-1 c158 -2 293 -145 293 -310 0 -48 4 -59 29 -85 16 -16 39 -29 50 -29 48 0
133 -43 184 -93 80 -79 102 -131 102 -247 0 -116 -21 -168 -101 -247 -67 -65
-137 -93 -234 -93 -125 0 -198 42 -311 178 -35 42 -89 45 -122 6 -85 -98 -136
-142 -191 -163 -142 -53 -312 -5 -397 112 -66 91 -99 89 -197 -11 -92 -95
-151 -122 -262 -122 -97 0 -167 28 -234 93 -79 79 -101 131 -101 247 0 80 4
103 24 145 52 104 132 166 247 190 91 19 109 39 117 134 11 132 96 244 216
285 25 8 62 14 81 13 32 -2 35 -5 42 -45z"/>
<path d="M161 1894 c0 -11 3 -14 6 -6 3 7 2 16 -1 19 -3 4 -6 -2 -5 -13z"/>
<path d="M1814 1131 c-57 -45 -132 -84 -191 -100 -26 -7 -48 -21 -55 -34 -9
-16 -12 -126 -12 -419 0 -465 -6 -438 100 -438 64 0 87 11 98 48 14 45 206
868 206 883 0 17 -51 73 -81 90 -13 6 -29 -1 -65 -30z m118 -70 c-2 -9 -49
-211 -105 -450 l-103 -433 -67 -2 -67 -1 0 407 0 407 42 12 c61 16 146 61 193
102 l40 35 35 -31 c19 -17 34 -38 32 -46z"/>
<path d="M1087 1133 c-59 -45 -60 -35 18 -358 19 -77 59 -246 89 -375 39 -162
61 -239 73 -248 24 -17 124 -15 151 4 l22 15 0 408 c0 460 6 428 -80 451 -60
16 -114 44 -177 91 -29 22 -54 39 -56 39 -2 0 -20 -12 -40 -27z m98 -51 c46
-36 136 -78 189 -87 l36 -7 0 -407 0 -406 -67 1 -67 2 -106 448 -107 449 31
27 c17 14 36 23 41 19 6 -4 28 -22 50 -39z"/>
<path d="M801 1016 c-48 -7 -78 -17 -84 -27 -15 -24 135 -657 172 -724 31 -57
99 -109 157 -119 30 -6 41 -4 57 13 l21 21 -93 397 c-93 392 -103 431 -125
445 -13 9 -7 9 -105 -6z m104 -28 c2 -7 45 -188 95 -401 50 -214 94 -395 97
-403 6 -15 -2 -15 -72 3 -37 9 -91 53 -112 91 -12 20 -56 183 -98 362 -42 179
-79 328 -82 333 -2 4 17 8 44 8 26 1 62 5 78 9 44 11 45 11 50 -2z"/>
<path d="M2086 1015 c-18 -18 -20 -28 -76 -265 -23 -96 -59 -248 -81 -338 -21
-90 -42 -180 -45 -201 -12 -76 51 -90 146 -33 72 44 98 100 148 312 24 102 59
252 79 334 27 108 34 153 26 165 -6 9 -31 19 -59 23 -27 4 -66 9 -86 12 -26 4
-41 1 -52 -9z m116 -32 c37 -3 66 -9 64 -12 -2 -3 -39 -152 -81 -331 -86 -365
-99 -399 -175 -436 -60 -29 -114 -39 -107 -19 3 7 47 189 97 402 50 213 93
394 96 402 2 8 11 10 22 6 9 -3 47 -9 84 -12z"/>
</g>
</svg>
